<?xml version="1.0" encoding="utf-8"?>
<!-- Svg Vector Icons : http://www.onlinewebfonts.com/icon -->
<!DOCTYPE svg PUBLIC "-//W3C//DTD SVG 1.1//EN" "http://www.w3.org/Graphics/SVG/1.1/DTD/svg11.dtd">
<svg version="1.1" xmlns="http://www.w3.org/2000/svg" xmlns:xlink="http://www.w3.org/1999/xlink" x="0px" y="0px" viewBox="0 0 256 256" enable-background="new 0 0 256 256" xml:space="preserve">
<metadata> Svg Vector Icons : http://www.onlinewebfonts.com/icon </metadata>
<g><g><path fill="#c2c4c3" d="M123.8,138.2l-52-26.4c-1.2-0.6-2.5-0.6-3.6,0l0,0l-55.6,26.4c-1.5,0.6-2.6,2.1-2.6,3.9v72h0c0,1.5,0.8,2.9,2.1,3.7l53.8,29.5l0,0h0l0,0l0,0l0,0l0,0l0,0l0,0l0,0l0,0h0h0l0,0l0,0h0h0l0,0l0.1,0l0,0l0,0l0,0l0,0h0h0l0,0l0,0h0h0l0,0l0,0l0,0l0,0h0h0h0l0,0h0h0h0l0,0l0,0h0h0h0l0,0h0h0h0h0l0,0h0h0h0h0h0h0h0h0h0h0h0h0h0h0h0h0h0h0h0l0,0h0h0h0h0h0h0h0h0h0.1h0.1h0h0h0h0h0h0h0h0l0,0h0h0h0h0h0h0h0h0h0h0h0h0h0h0h0h0h0h0l0,0l0,0h0h0h0l0,0h0h0h0l0,0l0,0h0h0h0l0,0h0h0h0l0,0l0,0l0,0l0,0h0h0l0,0l0,0h0h0l0,0l0,0l0,0l0,0l0.1,0l0,0h0h0l0,0l0,0h0h0l0,0l0,0l0,0l0,0l0,0l0,0l0,0l0,0h0l0,0l53.8-29.5c1.4-0.7,2.1-2.2,2.1-3.7h0v-72C126.4,140.3,125.4,138.8,123.8,138.2z M69.9,120.2l11.7,5.9l-45.1,23.5l-13.3-7.3L69.9,120.2z M64.1,236.7l-45.8-25.1v-62.5l14,7.7v13.8l10.4,4.9v-13.1l21.5,11.8V236.7L64.1,236.7z M68.2,167l-20.7-11.3L93,131.9l20.3,10.3L68.2,167z"/><path fill="#c2c4c3" d="M243.4,138.2l-52-26.4c-1.2-0.6-2.5-0.6-3.6,0l0,0l-55.6,26.4c-1.5,0.6-2.6,2.1-2.6,3.9v72h0c0,1.5,0.8,2.9,2.1,3.7l53.8,29.5l0,0h0l0,0l0,0l0,0l0,0l0,0l0,0l0,0l0,0h0h0l0,0l0,0h0h0l0,0l0.1,0l0,0l0,0l0,0l0,0h0h0l0,0l0,0h0h0l0,0l0,0l0,0l0,0h0h0h0l0,0h0h0h0l0,0l0,0h0h0h0l0,0h0h0h0h0l0,0h0h0h0h0h0h0h0h0h0h0h0h0h0h0h0h0h0h0h0l0,0h0h0h0h0h0h0h0h0h0.1h0.1h0h0h0h0h0h0h0h0l0,0h0h0h0h0h0h0h0h0h0h0h0h0h0h0h0h0l0,0h0l0,0l0,0h0h0h0l0,0h0h0h0l0,0l0,0h0h0h0l0,0h0h0h0l0,0l0,0l0,0l0,0h0h0l0,0l0,0h0h0l0,0l0,0l0,0l0,0l0.1,0l0,0h0h0l0,0l0,0h0h0l0,0l0,0l0,0l0,0l0,0l0,0l0,0l0,0h0l0,0l53.3-29.5c1.4-0.7,2.1-2.2,2.1-3.7h0v-72C246,140.3,244.9,138.8,243.4,138.2z M189.5,120.2l11.7,5.9l-45.1,23.5l-13.3-7.3L189.5,120.2z M183.6,236.7l-45.8-25.1v-62.5l14,7.7v13.8l10.4,4.9v-13.1l21.5,11.8L183.6,236.7L183.6,236.7z M187.8,167l-20.7-11.3l45.5-23.7l20.3,10.3L187.8,167z"/><path fill="#c2c4c3" d="M184.8,35l-52-26.4c-1.2-0.6-2.5-0.6-3.6,0l0,0L73.7,35c-1.5,0.6-2.6,2.1-2.6,3.9v72h0c0,1.5,0.8,2.9,2.1,3.7L127,144l0,0h0l0,0l0,0l0,0l0,0l0,0l0,0l0,0l0,0h0h0l0,0l0,0h0h0l0,0l0.1,0l0,0l0,0l0,0l0,0h0h0l0,0l0,0h0h0l0,0l0,0l0,0l0,0h0h0h0l0,0h0h0h0l0,0l0,0h0h0h0l0,0h0h0h0h0l0,0h0h0h0h0h0h0h0h0h0h0h0h0h0h0h0h0h0h0h0l0,0h0h0h0h0h0h0h0h0h0.1h0.1h0h0h0h0h0h0h0h0l0,0h0h0h0h0h0h0h0h0h0h0h0h0h0h0h0h0h0h0l0,0l0,0h0h0h0l0,0h0h0h0l0,0l0,0h0h0h0l0,0h0h0h0l0,0l0,0l0,0l0,0h0h0l0,0l0,0h0h0l0,0l0,0l0,0l0,0l0.1,0l0,0h0h0l0,0l0,0h0h0l0,0l0,0l0,0l0,0l0,0l0,0l0,0l0,0h0l0,0l53.3-29.5c1.4-0.7,2.1-2.2,2.1-3.7h0v-72C187.5,37.1,186.4,35.6,184.8,35z M133.9,18.4l11.7,5.9l-45.1,23.5l-13.3-7.3L133.9,18.4z M125.2,134.9l-45.8-25.1V47.3l14,7.7v13.8l10.4,4.9V60.6l21.5,11.8V134.9L125.2,134.9z M129.3,63.8l-20.7-11.3l45.5-23.7L174.4,39L129.3,63.8z"/></g></g>
</svg>