<?xml version="1.0" encoding="utf-8"?>
<!-- Svg Vector Icons : http://www.onlinewebfonts.com/icon -->
<!DOCTYPE svg PUBLIC "-//W3C//DTD SVG 1.1//EN" "http://www.w3.org/Graphics/SVG/1.1/DTD/svg11.dtd">
<svg version="1.1" xmlns="http://www.w3.org/2000/svg" xmlns:xlink="http://www.w3.org/1999/xlink" x="0px" y="0px" viewBox="0 0 256 256" enable-background="new 0 0 256 256" xml:space="preserve">
<metadata> Svg Vector Icons : http://www.onlinewebfonts.com/icon </metadata>
<g><g><path fill="#c2c4c3" d="M210.6,246l-165.3,0c-11.5,0-20.9-9.4-20.9-20.9c0-4.2,3.4-7.7,7.7-7.7c4.3,0,4.9,1.6,4.9,5.9c0,7.3,4.1,8.5,7.2,8.5l162.5,0c3.6-0.1,10.2-0.3,10.2-8.2c0-4.2,2.7-6.1,7-6.1s7.7,3.4,7.7,7.7C231.6,236.6,222.2,246,210.6,246L210.6,246z"/><path fill="#c2c4c3" d="M154.1,60.6H55.9c-3.9,0-7.2-3.2-7.2-7.2c0-3.9,3.2-7.2,7.2-7.2h98.2c4,0,7.2,3.2,7.2,7.2C161.2,57.4,158,60.6,154.1,60.6L154.1,60.6z"/><path fill="#c2c4c3" d="M130.2,86.6H57.5c-4.1,0-7.4-3.3-7.4-7.4c0-4.1,3.3-7.4,7.4-7.4h72.7c4.1,0,7.4,3.3,7.4,7.4C137.6,83.3,134.3,86.6,130.2,86.6L130.2,86.6z"/><path fill="#c2c4c3" d="M108.6,115.4H56.1c-4.1,0-7.4-3.3-7.4-7.4c0-4.1,3.3-7.4,7.4-7.4h52.5c4.1,0,7.4,3.3,7.4,7.4C116,112.1,112.7,115.4,108.6,115.4L108.6,115.4z"/><path fill="#c2c4c3" d="M93.5,147.1H58.9c-4.4,0-7.9-3.5-7.9-7.9c0-4.4,3.5-7.9,7.9-7.9h34.6c4.4,0,7.9,3.5,7.9,7.9C101.4,143.6,97.8,147.1,93.5,147.1L93.5,147.1z"/><path fill="#c2c4c3" d="M32.1,235.2c-4.2,0-7.7-3.4-7.7-7.7V30.9c0-11.5,9.4-20.9,20.9-20.9l165.3,0h0c5.6,0,10.8,2.2,14.8,6.1c3.9,3.9,6.1,9.2,6.1,14.8l0.1,194.5c0,4.2-3.4,7.7-7.6,7.7h0c-4.2,0-6.9-4.9-7-9.1l0.3-12.9v-180c0-1.5-0.1-7.2-6.7-7.2l0,0l-165.3,0c-3.1,0-7.2,2.3-7.2,8.6l-1,190.7C37.1,227.5,36.3,235.2,32.1,235.2L32.1,235.2z"/><path fill="#c2c4c3" d="M112.5,205.8l19.3-6.1c0.5-0.1,1-0.4,1.3-0.8l57.4-57.4c1.3-1.3,1.3-3.4,0-4.6l-13.2-13.2c-1.3-1.3-3.4-1.3-4.6,0L115.3,181c-0.4,0.4-0.6,0.8-0.8,1.3l-6,19.3C107.6,204.2,110,206.6,112.5,205.8 M188.4,107.9l-5.2,5.1c-1.3,1.3-1.3,3.3,0,4.6l13.2,13.2c1.3,1.3,3.4,1.3,4.6,0l2.8-2.8c3.7-3.8,3.7-9.8,0-13.6l-6.6-6.6C194.9,105.4,190.9,105.4,188.4,107.9"/></g></g>
</svg>