<svg width="162" height="162" viewBox="0 0 162 162" fill="none" xmlns="http://www.w3.org/2000/svg">
<g>
<path fill-rule="evenodd" clip-rule="evenodd" d="M79.7333 33.8254C81.5429 33.8254 82.9906 35.3009 82.9906 37.0827V125.558C82.9906 127.367 81.5151 128.815 79.7333 128.815C77.9237 128.815 76.4761 127.339 76.4761 125.558V37.1105C76.4761 35.3009 77.9516 33.8532 79.7333 33.8532V33.8254Z" fill="white" stroke="#231F20" stroke-miterlimit="10"/>
<path d="M79.7333 129.539C77.5339 129.539 75.7522 127.757 75.7522 125.558V37.1105C75.7522 34.9112 77.5339 33.1294 79.7333 33.1294C81.9326 33.1294 83.7144 34.9112 83.7144 37.1105V125.586C83.7144 127.785 81.9326 129.567 79.7333 129.567V129.539ZM79.7333 34.5214C78.3135 34.5214 77.172 35.6628 77.172 37.0827V125.558C77.172 126.977 78.3135 128.119 79.7333 128.119C81.1531 128.119 82.2946 126.977 82.2946 125.558V37.1105C82.2946 35.6907 81.1531 34.5492 79.7333 34.5492V34.5214Z" fill="#070707" stroke="#231F20" stroke-miterlimit="10"/>
<path fill-rule="evenodd" clip-rule="evenodd" d="M127.256 81.348C127.256 83.1576 125.78 84.6331 123.999 84.6331H35.4958C33.6862 84.6331 32.2385 83.1576 32.2385 81.348C32.2385 79.5384 33.714 78.0907 35.4958 78.0907H123.971C125.78 78.0907 127.228 79.5663 127.228 81.348H127.256Z" fill="white" stroke="#231F20" stroke-miterlimit="10"/>
<path d="M123.971 85.3291H35.4957C33.2964 85.3291 31.5146 83.5474 31.5146 81.348C31.5146 79.1487 33.2964 77.3669 35.4957 77.3669H123.971C126.17 77.3669 127.952 79.1487 127.952 81.348C127.952 83.5474 126.17 85.3291 123.971 85.3291ZM35.4957 78.7867C34.0759 78.7867 32.9345 79.9282 32.9345 81.348C32.9345 82.7678 34.0759 83.9093 35.4957 83.9093H123.971C125.391 83.9093 126.532 82.7678 126.532 81.348C126.532 79.9282 125.391 78.7867 123.971 78.7867H35.4957Z" fill="#070707" stroke="#231F20" stroke-miterlimit="10"/>
<path fill-rule="evenodd" clip-rule="evenodd" d="M79.7333 122.662C102.506 122.662 121.075 104.093 121.075 81.3202C121.075 58.5472 102.506 39.978 79.7333 39.978C56.9603 39.978 38.3911 58.5472 38.3911 81.3202C38.3911 104.093 56.9603 122.662 79.7333 122.662Z" fill="white" stroke="#231F20" stroke-miterlimit="10"/>
<path d="M79.7332 123.386C56.5426 123.386 37.6672 104.511 37.6672 81.348C37.6672 58.1853 56.5426 39.282 79.7332 39.282C102.924 39.282 121.799 58.1574 121.799 81.348C121.799 104.539 102.924 123.386 79.7332 123.386ZM79.7332 40.7018C57.3222 40.7018 39.0871 58.9369 39.0871 81.348C39.0871 103.759 57.3222 121.966 79.7332 121.966C102.144 121.966 120.379 103.731 120.379 81.348C120.379 58.9648 102.144 40.7018 79.7332 40.7018Z" fill="#070707" stroke="#231F20" stroke-miterlimit="10"/>
<path fill-rule="evenodd" clip-rule="evenodd" d="M107.907 35.7185L129.4 57.2109C130.875 58.6864 133.297 58.6864 134.773 57.2109L157.045 34.939L130.151 8.07356L107.879 30.3454C106.404 31.8209 106.404 34.243 107.879 35.7185H107.907Z" fill="white" stroke="#231F20" stroke-miterlimit="10"/>
<path d="M132.072 59.0483C130.875 59.0483 129.734 58.575 128.871 57.7398L107.378 36.2475C106.515 35.4123 106.07 34.2708 106.07 33.0737C106.07 31.8766 106.543 30.7352 107.378 29.8721L130.151 7.07133L158.019 34.939L135.246 57.712C134.411 58.575 133.269 59.0205 132.044 59.0205L132.072 59.0483ZM130.151 9.10363L108.381 30.8744C107.796 31.459 107.49 32.2385 107.49 33.0459C107.49 33.8811 107.796 34.6606 108.381 35.2174L129.873 56.7098C131.042 57.879 133.074 57.879 134.244 56.7098L156.014 34.939L130.151 9.07579V9.10363Z" fill="#070707" stroke="#231F20" stroke-miterlimit="10"/>
<path fill-rule="evenodd" clip-rule="evenodd" d="M134.745 6.98781L158.13 30.3733C159.606 31.8488 161.081 34.6328 158.437 35.4401L155.736 36.2753L128.843 9.38203L129.678 6.68157C130.569 3.73054 133.269 5.51229 134.745 6.98781Z" fill="white" stroke="#231F20" stroke-miterlimit="10"/>
<path d="M155.513 37.0548L128.063 9.60475L129.01 6.48669C129.567 4.6771 130.736 4.3987 131.404 4.3987C132.991 4.3987 134.634 5.87421 135.246 6.51453L158.631 29.9C159.745 31.0136 160.914 32.851 160.525 34.3822C160.385 34.9668 159.94 35.7742 158.631 36.1361L155.513 37.0827V37.0548ZM129.65 9.18715L155.931 35.468L158.242 34.772C159.021 34.5214 159.133 34.1316 159.16 34.0203C159.355 33.2965 158.687 31.9601 157.629 30.9022L134.244 7.48892C133.214 6.45885 132.1 5.79069 131.404 5.79069C131.209 5.79069 130.708 5.79069 130.374 6.87645L129.678 9.18715H129.65Z" fill="#070707" stroke="#231F20" stroke-miterlimit="10"/>
<path fill-rule="evenodd" clip-rule="evenodd" d="M54.0928 126.282L32.6004 104.789C31.1249 103.314 28.7028 103.314 27.2273 104.789L4.95544 127.061L31.8209 153.926L54.0928 131.655C55.5683 130.179 55.5683 127.757 54.0928 126.282Z" fill="white" stroke="#231F20" stroke-miterlimit="10"/>
<path d="M31.8209 154.929L3.95325 127.033L26.7262 104.26C28.4245 102.562 31.4033 102.562 33.1016 104.26L54.5939 125.753C56.3478 127.506 56.3478 130.374 54.5939 132.128L31.8209 154.901V154.929ZM5.95772 127.033L31.8209 152.896L53.5917 131.126C54.7888 129.929 54.7888 127.952 53.5917 126.755L32.0993 105.262C30.93 104.093 28.8977 104.093 27.7285 105.262L5.95772 127.033Z" fill="#070707" stroke="#231F20" stroke-miterlimit="10"/>
<path fill-rule="evenodd" clip-rule="evenodd" d="M27.2552 155.012L3.86971 131.627C2.3942 130.151 0.918692 127.367 3.56348 126.56L6.26394 125.725L33.1294 152.59L32.322 155.291C31.4312 158.242 28.7307 156.46 27.2552 154.984V155.012Z" fill="white" stroke="#231F20" stroke-miterlimit="10"/>
<path d="M30.596 157.629C29.0091 157.629 27.3666 156.154 26.7541 155.513L3.36862 132.128C2.25503 131.014 1.08575 129.177 1.47551 127.673C1.61471 127.089 2.06015 126.282 3.36862 125.892L6.48668 124.945L33.9646 152.423L33.018 155.541C32.4613 157.351 31.292 157.629 30.6238 157.629H30.596ZM6.06909 126.532L3.75838 127.228C2.95102 127.479 2.8675 127.868 2.83966 127.98C2.64479 128.704 3.31294 130.04 4.37086 131.098L27.7563 154.483C28.7864 155.513 29.9 156.181 30.596 156.181C30.7909 156.181 31.292 156.181 31.6261 155.096L32.3221 152.785L6.06909 126.532Z" fill="#070707" stroke="#231F20" stroke-miterlimit="10"/>
<path fill-rule="evenodd" clip-rule="evenodd" d="M126.281 107.907L104.789 129.4C103.314 130.875 103.314 133.297 104.789 134.773L127.061 157.045L153.926 130.179L131.655 107.907C130.179 106.432 127.757 106.432 126.281 107.907Z" fill="white" stroke="#231F20" stroke-miterlimit="10"/>
<path d="M127.033 158.047L104.26 135.274C102.506 133.52 102.506 130.652 104.26 128.898L125.752 107.406C127.451 105.708 130.43 105.708 132.128 107.406L154.901 130.179L127.033 158.047ZM128.954 107.517C128.119 107.517 127.339 107.852 126.783 108.408L105.29 129.901C104.093 131.098 104.093 133.074 105.29 134.272L127.061 156.042L152.924 130.179L131.153 108.408C130.569 107.824 129.789 107.517 128.982 107.517H128.954Z" fill="#070707" stroke="#231F20" stroke-miterlimit="10"/>
<path fill-rule="evenodd" clip-rule="evenodd" d="M155.012 134.745L131.627 158.13C130.151 159.606 127.367 161.081 126.56 158.437L125.752 155.736L152.618 128.871L155.318 129.706C158.269 130.597 156.488 133.297 155.012 134.773V134.745Z" fill="white" stroke="#231F20" stroke-miterlimit="10"/>
<path d="M128.258 160.608C127.59 160.608 126.393 160.357 125.864 158.659L124.917 155.541L152.395 128.063L155.513 129.01C156.905 129.427 157.378 130.235 157.546 130.819C157.991 132.545 156.265 134.494 155.513 135.246L132.128 158.631C131.181 159.578 129.65 160.608 128.286 160.608H128.258ZM126.532 155.931L127.228 158.242C127.479 159.077 127.924 159.188 128.258 159.188C129.01 159.188 130.179 158.548 131.098 157.629L154.483 134.244C155.652 133.074 156.321 131.849 156.154 131.181C156.07 130.847 155.708 130.569 155.096 130.374L152.785 129.678L126.504 155.959L126.532 155.931Z" fill="#070707" stroke="#231F20" stroke-miterlimit="10"/>
<path fill-rule="evenodd" clip-rule="evenodd" d="M35.7186 54.0928L57.2109 32.6005C58.6864 31.1249 58.6864 28.7029 57.2109 27.2274L34.9669 4.9555L8.07361 31.8488L30.3455 54.1206C31.821 55.5962 34.2431 55.5962 35.7186 54.1206V54.0928Z" fill="white" stroke="#231F20" stroke-miterlimit="10"/>
<path d="M33.046 55.9302C31.8489 55.9302 30.7074 55.457 29.8444 54.6218L7.07141 31.8488L34.9669 3.95326L57.7399 26.7263C58.6029 27.5614 59.0484 28.7029 59.0484 29.9C59.0484 31.0971 58.5751 32.2385 57.7399 33.1016L36.2476 54.5939C35.4124 55.457 34.2709 55.9024 33.0738 55.9024L33.046 55.9302ZM9.07588 31.8488L30.8466 53.6195C32.0159 54.7888 34.0482 54.7888 35.2175 53.6195L56.7098 32.1272C57.2945 31.5425 57.6007 30.763 57.6007 29.9557C57.6007 29.1483 57.2945 28.341 56.7098 27.7842L34.9669 5.95773L9.07588 31.8488Z" fill="#070707" stroke="#231F20" stroke-miterlimit="10"/>
<path fill-rule="evenodd" clip-rule="evenodd" d="M6.98782 27.2552L30.3733 3.86974C31.8488 2.39423 34.6328 0.918721 35.4401 3.56351L36.2753 6.26397L9.38204 33.1573L6.68158 32.3499C3.73056 31.459 5.51231 28.7586 6.98782 27.283V27.2552Z" fill="white" stroke="#231F20" stroke-miterlimit="10"/>
<path d="M9.57695 33.9368L6.45889 32.9902C5.06689 32.5726 4.59362 31.7653 4.42658 31.1806C4.00898 29.4546 5.70721 27.5058 6.45889 26.7541L29.8722 3.36863C30.8187 2.42207 32.3499 1.392 33.7141 1.392C34.3822 1.392 35.5794 1.64256 36.1083 3.36863L37.0549 6.48669L9.57695 33.9368ZM33.7419 2.81183C32.9902 2.81183 31.821 3.45215 30.9023 4.37086L7.48896 27.7563C6.31969 28.9256 5.65153 30.1505 5.81857 30.8187C5.90209 31.1528 6.26401 31.4312 6.87648 31.6261L9.18719 32.3221L35.468 6.06909L34.772 3.75838C34.5214 2.92319 34.076 2.81183 33.7419 2.81183Z" fill="#070707" stroke="#231F20" stroke-miterlimit="10"/>
</g>
</svg>
